<svg width="114" height="114" xmlns="http://www.w3.org/2000/svg" xmlns:xlink="http://www.w3.org/1999/xlink" xml:space="preserve" overflow="hidden"><defs><clipPath id="clip0"><rect x="262" y="159" width="114" height="114"/></clipPath></defs><g clip-path="url(#clip0)" transform="translate(-262 -159)"><path d="M362.938 203.413C360.919 198.544 355.337 196.288 350.469 198.306 346.431 199.969 344.056 204.244 344.65 208.4L329.331 214.812C327.669 211.962 324.7 209.825 321.375 209.231L321.375 192.725C325.413 191.656 328.5 187.975 328.5 183.581 328.5 178.356 324.225 174.081 319 174.081L319 174.081C313.775 174.081 309.5 178.356 309.5 183.581 309.5 187.975 312.587 191.656 316.625 192.725L316.625 209.113C313.181 209.706 310.331 211.844 308.669 214.694L293.35 208.281C293.944 204.125 291.688 199.85 287.531 198.188 282.663 196.169 277.081 198.425 275.062 203.294 273.044 208.163 275.3 213.744 280.169 215.762 284.206 217.425 288.837 216.119 291.331 212.675L307.006 219.087C306.888 219.562 306.888 220.156 306.888 220.631 306.888 223.244 307.719 225.738 309.263 227.756L296.913 240.225C293.231 238.087 288.481 238.562 285.394 241.65 281.712 245.331 281.712 251.388 285.394 255.069 289.075 258.75 295.131 258.75 298.812 255.069 301.9 251.981 302.375 247.231 300.237 243.55L312.825 230.962C314.606 232.031 316.625 232.625 318.763 232.625 318.881 232.625 318.881 232.625 319 232.625 319.119 232.625 319.119 232.625 319.237 232.625 321.375 232.625 323.394 232.031 325.175 230.962L337.763 243.55C335.625 247.231 336.1 251.981 339.188 255.188 342.869 258.869 348.925 258.869 352.606 255.188 356.288 251.506 356.288 245.45 352.606 241.769 349.519 238.681 344.769 238.206 341.087 240.344L328.737 227.875C330.281 225.856 331.112 223.481 331.112 220.75 331.112 220.275 331.112 219.681 330.994 219.206L346.669 212.794C349.163 216.119 353.794 217.544 357.831 215.881 362.581 213.744 364.956 208.281 362.938 203.413Z" fill="#FFFFFF"/></g></svg>