<svg width="114" height="113" xmlns="http://www.w3.org/2000/svg" xmlns:xlink="http://www.w3.org/1999/xlink" xml:space="preserve" overflow="hidden"><defs><clipPath id="clip0"><rect x="262" y="166" width="114" height="113"/></clipPath></defs><g clip-path="url(#clip0)" transform="translate(-262 -166)"><path d="M96.5208 75.3333 16.4792 75.3333 16.4792 23.5417 96.5208 23.5417 96.5208 75.3333ZM98.875 16.4792 14.125 16.4792C11.5354 16.4792 9.41667 18.5979 9.41667 21.1875L9.41667 77.6875C9.41667 80.2771 11.5354 82.3958 14.125 82.3958L47.0833 82.3958 47.0833 89.4583 35.3125 89.4583 35.3125 96.5208 77.6875 96.5208 77.6875 89.4583 65.9167 89.4583 65.9167 82.3958 98.875 82.3958C101.465 82.3958 103.583 80.2771 103.583 77.6875L103.583 21.1875C103.583 18.5979 101.465 16.4792 98.875 16.4792Z" fill="#FFFFFF" transform="matrix(1.00885 0 0 1 262 166)"/></g></svg>